<svg width="127" height="52" viewBox="0 0 127 52" fill="none" xmlns="http://www.w3.org/2000/svg">
<rect width="52" height="52" rx="10" fill="#B73058"/>
<rect y="8" width="52" height="44" rx="10" fill="#FF477E"/>
<path d="M36.88 21.6667C35.4666 20.2496 33.593 19.3847 31.5977 19.2282C29.6025 19.0718 27.617 19.634 26 20.8134C24.3035 19.5515 22.1919 18.9794 20.0905 19.2121C17.9891 19.4448 16.0539 20.4651 14.6746 22.0675C13.2953 23.6699 12.5744 25.7354 12.657 27.848C12.7397 29.9607 13.6197 31.9636 15.12 33.4534L23.4 41.7467C24.0933 42.4291 25.0271 42.8115 26 42.8115C26.9728 42.8115 27.9066 42.4291 28.6 41.7467L36.88 33.4534C38.4367 31.887 39.3105 29.7684 39.3105 27.56C39.3105 25.3517 38.4367 23.233 36.88 21.6667ZM35 31.6133L26.72 39.8934C26.6257 39.9885 26.5136 40.064 26.39 40.1156C26.2664 40.1671 26.1339 40.1936 26 40.1936C25.8661 40.1936 25.7335 40.1671 25.6099 40.1156C25.4863 40.064 25.3742 39.9885 25.28 39.8934L17 31.5734C15.9543 30.5045 15.3688 29.0686 15.3688 27.5734C15.3688 26.0781 15.9543 24.6422 17 23.5734C18.0655 22.5213 19.5026 21.9314 21 21.9314C22.4973 21.9314 23.9344 22.5213 25 23.5734C25.1239 23.6983 25.2714 23.7975 25.4339 23.8652C25.5963 23.9329 25.7706 23.9677 25.9466 23.9677C26.1226 23.9677 26.2969 23.9329 26.4594 23.8652C26.6219 23.7975 26.7693 23.6983 26.8933 23.5734C27.9588 22.5213 29.3959 21.9314 30.8933 21.9314C32.3907 21.9314 33.8278 22.5213 34.8933 23.5734C35.9533 24.6282 36.5581 26.0563 36.578 27.5516C36.598 29.0469 36.0315 30.4906 35 31.5734V31.6133Z" fill="white"/>
<path d="M85.6305 16.176V36H80.1425V27.992H73.4225V36H67.9065V16.176H73.4225V23.596H80.1425V16.176H85.6305ZM94.5118 20.096C95.6131 20.096 96.5651 20.3387 97.3678 20.824C98.1891 21.2907 98.7958 21.944 99.1878 22.784V20.292H104.676V36H99.1878V33.508C98.7958 34.348 98.1891 35.0107 97.3678 35.496C96.5651 35.9627 95.6131 36.196 94.5118 36.196C93.2611 36.196 92.1318 35.8787 91.1238 35.244C90.1158 34.5907 89.3224 33.6573 88.7438 32.444C88.1651 31.212 87.8758 29.7747 87.8758 28.132C87.8758 26.4893 88.1651 25.0613 88.7438 23.848C89.3224 22.6347 90.1158 21.7107 91.1238 21.076C92.1318 20.4227 93.2611 20.096 94.5118 20.096ZM96.3318 24.912C95.4731 24.912 94.7731 25.2013 94.2318 25.78C93.7091 26.34 93.4478 27.124 93.4478 28.132C93.4478 29.1587 93.7091 29.9613 94.2318 30.54C94.7731 31.1 95.4731 31.38 96.3318 31.38C97.1531 31.38 97.8344 31.0907 98.3758 30.512C98.9171 29.9333 99.1878 29.14 99.1878 28.132C99.1878 27.1427 98.9171 26.3587 98.3758 25.78C97.8344 25.2013 97.1531 24.912 96.3318 24.912ZM117.044 31.296V36H114.776C112.853 36 111.35 35.524 110.268 34.572C109.185 33.62 108.644 32.0427 108.644 29.84V24.884H106.628V20.292H108.644V16.484H114.16V20.292H116.988V24.884H114.16V29.952C114.16 30.4373 114.262 30.7827 114.468 30.988C114.692 31.1933 115.056 31.296 115.56 31.296H117.044ZM119.111 15.952C119.111 15.1307 119.41 14.4587 120.007 13.936C120.604 13.3947 121.388 13.124 122.359 13.124C123.33 13.124 124.104 13.3947 124.683 13.936C125.262 14.4587 125.551 15.1307 125.551 15.952C125.551 16.736 125.252 17.3893 124.655 17.912C124.076 18.4347 123.311 18.696 122.359 18.696C121.388 18.696 120.604 18.4347 120.007 17.912C119.41 17.3893 119.111 16.736 119.111 15.952ZM125.075 20.292V36H119.559V20.292H125.075Z" fill="#49516F"/>
</svg>
